<?xml version="1.0" encoding="UTF-8" standalone="no"?>
<svg
   xmlns:dc="http://purl.org/dc/elements/1.1/"
   xmlns:cc="http://creativecommons.org/ns#"
   xmlns:rdf="http://www.w3.org/1999/02/22-rdf-syntax-ns#"
   xmlns:svg="http://www.w3.org/2000/svg"
   xmlns="http://www.w3.org/2000/svg"
   id="svg11"
   xml:space="preserve"
   enable-background="new 0 0 200 200"
   viewBox="0 0 200 200"
   y="0px"
   x="0px"
   version="1.1"><metadata
     id="metadata15"><rdf:RDF><cc:Work
         rdf:about=""><dc:format>image/svg+xml</dc:format><dc:type
           rdf:resource="http://purl.org/dc/dcmitype/StillImage" /></cc:Work></rdf:RDF></metadata><defs
     id="defs318920" /><linearGradient
     spreadMethod="pad"
     y2="30%"
     x2="-10%"
     y1="120%"
     x1="30%"
     id="3d_gradient2-logo-b08748d2-def9-4f2a-bb8b-315ab4e16f2e"><stop
       id="stop318897"
       stop-opacity="1"
       stop-color="#ffffff"
       offset="0%" /><stop
       id="stop318899"
       stop-opacity="1"
       stop-color="#000000"
       offset="100%" /></linearGradient><linearGradient
     gradientTransform="rotate(-30)"
     spreadMethod="pad"
     y2="30%"
     x2="-10%"
     y1="120%"
     x1="30%"
     id="3d_gradient3-logo-b08748d2-def9-4f2a-bb8b-315ab4e16f2e"><stop
       id="stop318902"
       stop-opacity="1"
       stop-color="#ffffff"
       offset="0%" /><stop
       id="stop318904"
       stop-opacity="1"
       stop-color="#cccccc"
       offset="50%" /><stop
       id="stop318906"
       stop-opacity="1"
       stop-color="#000000"
       offset="100%" /></linearGradient><path
     style="fill:#439ec4;stroke-width:0.59959275"
     d="M 99.999393,64.865973 H 71.889887 l 0.111344,0.198022 c 0.06116,0.108526 6.382065,11.036703 14.046059,24.284705 7.664594,13.245 13.939932,24.08564 13.951924,24.08564 0.0094,0 6.287326,-10.83884 13.951926,-24.08684 7.66399,-13.247401 13.9849,-24.176178 14.04606,-24.284704 l 0.11135,-0.198022 z m 0,1.866892 c 13.659917,0 24.836327,0.01233 24.836327,0.02767 0,0.01534 -5.58101,9.672629 -12.40257,21.460623 -6.82097,11.788592 -12.41637,21.433042 -12.433757,21.433042 -0.01769,0 -5.612667,-9.64505 -12.434354,-21.433042 C 80.744072,76.433166 75.163063,66.775526 75.163063,66.759937 c 0,-0.015 11.176409,-0.02767 24.83633,-0.02767 z m -31.836575,19.922668 -0.05967,-0.09634 -0.035,0.06301 c -0.01934,0.03467 -6.342492,10.961754 -14.051456,24.282307 l -14.016679,24.21935 28.088521,0.008 c 15.448506,0.005 28.094517,0.002 28.102311,-0.005 0.0077,-0.008 -6.281933,-10.8952 -13.977106,-24.19477 C 74.518561,97.631258 68.195856,86.706678 68.162878,86.653314 Z m 0.03601,3.802437 c 0.05101,0.08868 5.644326,9.75477 12.429557,21.48041 l 12.33662,21.31912 -24.841726,0.008 c -13.662919,0.005 -24.847722,0.002 -24.855517,-0.005 -0.0077,-0.008 5.577651,-9.67743 12.412169,-21.48881 l 12.42536,-21.476209 z m 63.736702,-3.821444 -0.048,-0.07201 -14.04606,24.274514 c -7.72515,13.35113 -14.04006,24.2805 -14.03226,24.2883 0.008,0.008 12.6538,0.0103 28.10231,0.005 l 28.08852,-0.008 -14.00829,-24.20796 C 138.28696,97.602477 131.96125,86.676099 131.93727,86.637125 Z m -0.0273,3.693131 c 0.0117,0.01233 5.60499,9.673833 12.42956,21.469613 6.82456,11.79579 12.40257,21.45343 12.39478,21.46063 -0.008,0.008 -11.1926,0.0103 -24.85552,0.005 l -24.84173,-0.008 12.42596,-21.47501 c 6.84136,-11.814979 12.44155,-21.469021 12.45355,-21.45583 z"
     id="icon" /></svg>